<svg xmlns="http://www.w3.org/2000/svg" xmlns:xlink="http://www.w3.org/1999/xlink" viewBox="0 0 512 512">
    <!-- <style> #egg, #badge, #feedback { display: none; } </style> -->
    <!-- C:\X\desktop web\web pictures\web\dp\2015, 09.31.15, dp logo play\dp current\images 2017062917 new\renders -->
    <defs>
        <radialGradient id="radial-gradient" cx="242.5" cy="190" r="205" gradientUnits="userSpaceOnUse">
            <stop offset="0" stop-color="#e8ebf6"/>
            <stop offset="0.55" stop-color="#e5ebf6"/>
            <stop offset="1" stop-color="#b6ebff"/>
        </radialGradient>
        <symbol id="Home" data-name="Home" viewBox="0 0 69.46 63.67">
            <path d="M69.46,26.51,56.86,16.9V1h-9v9L34.73,0,0,26.51l5.46,7.16L9.2,30.81V63.67H60.26V30.81L64,33.67ZM55.26,58.67H43.73v-19h-18v19H14.2v-31L34.73,12,55.26,27.63Z" style="fill:#29abe2"/>
        </symbol>
    </defs>
    <g id="dpmaxz-logo">
        <g id="bkg">
            <path d="M457,135.54c0,34.18-3.16,79-15.07,126.29a401.15,401.15,0,0,1-22,62.88,422.8,422.8,0,0,1-38.1,67.79A307.1,307.1,0,0,1,310.94,462a336.83,336.83,0,0,1-53.73,31l-1.09.51L255,493a336.66,336.66,0,0,1-53.79-31,307.69,307.69,0,0,1-71-69.62,422.62,422.62,0,0,1-38.14-67.87,401.12,401.12,0,0,1-22-63C58.16,214.24,55,169.33,55,135.11c0-38.45,4-63.52,4-63.61l.31-2,31.12-4.11c.33-10,.82-18.47,1.31-25.17L256,18.5,420.26,40.62c.49,6.7,1,15.2,1.32,25.18L452.71,70l.31,2C453,72.09,457,97.13,457,135.54Z" stroke="#00a1dd" stroke-miterlimit="10" stroke-width="22.95" style="fill:url(#radial-gradient)"/>
            <path d="M256,40.58,402.78,60.34c.31,5.18.56,10.59.75,16.17l.26,7.6,7.54,1L434,88.18a451.26,451.26,0,0,1,3,54c0,41-4.7,80.38-14,117.15a371.49,371.49,0,0,1-20.27,58,391.47,391.47,0,0,1-35.14,62.53,281.55,281.55,0,0,1-64.9,63.59,310,310,0,0,1-46.62,27.16,309.77,309.77,0,0,1-46.67-27.18,282.1,282.1,0,0,1-65-63.67,391.22,391.22,0,0,1-35.17-62.61A371.68,371.68,0,0,1,89,259c-9.28-36.81-14-76.28-14-117.3a451.25,451.25,0,0,1,3-54l22.64-3,7.56-1,.25-7.63c.18-5.55.43-10.95.74-16.13L256,40.58m0-9.08L100.72,52c-.46,6.33-.93,14.37-1.24,23.79L70.06,79.69l-.29,1.91c0,.08-3.76,23.78-3.77,60.13,0,32.35,3,74.8,14.26,119.52a379.19,379.19,0,0,0,20.8,59.51,399.47,399.47,0,0,0,36.05,64.16,290.84,290.84,0,0,0,67.12,65.81A318.26,318.26,0,0,0,255.08,480l1,.48,1-.48a318.39,318.39,0,0,0,50.79-29.27A290.29,290.29,0,0,0,375,385a399.66,399.66,0,0,0,36-64.08,379.18,379.18,0,0,0,20.77-59.44C443,216.85,446,174.44,446,142.13c0-36.31-3.74-60-3.76-60.06l-.29-1.9-29.43-4c-.32-9.43-.78-17.47-1.25-23.8L256,31.5Z" style="fill:#fff"/>
        </g>
        <g id="logo">
            <path d="M34.5,229.29V403.88H99.62c1.36.07,2.74.11,4.14.11H477.23v-.11h.27V229.29Z" style="fill:#00a1dd"/>
            <path d="M458.23,384.61H94.93a44.29,44.29,0,0,1-27-14.83c-8.1-9.36-12.93-22.23-14.16-37.57V248.56H421.06a38.49,38.49,0,0,1,24.52,13.35c7.2,8.47,11.52,20.4,12.65,34.8Z" style="fill:#fff"/>
            <g>
                <path d="M306.54,315.92q0-6.79,3.26-9.79c2.17-2,5.4-3,9.7-3s7.53,1,9.7,3,3.25,5.27,3.25,9.79-1.07,7.79-3.25,9.79-5.41,3-9.7,3-7.53-1-9.7-3S306.54,320.45,306.54,315.92Z" style="fill:#00a1dd"/>
                <path d="M263.22,315.92q0-6.79,3.26-9.79c2.17-2,5.4-3,9.7-3s7.53,1,9.7,3,3.25,5.27,3.25,9.79-1.07,7.79-3.25,9.79-5.41,3-9.7,3-7.53-1-9.7-3S263.22,320.45,263.22,315.92Z" style="fill:#00a1dd"/>
                <path d="M220.16,315.92q0-6.79,3.26-9.79c2.17-2,5.4-3,9.7-3s7.53,1,9.7,3,3.25,5.27,3.25,9.79-1.07,7.79-3.25,9.79-5.41,3-9.7,3-7.53-1-9.7-3S220.16,320.45,220.16,315.92Z" style="fill:#00a1dd"/>
                <path d="M177.1,315.92q0-6.79,3.26-9.79c2.17-2,5.4-3,9.7-3s7.53,1,9.7,3,3.25,5.27,3.25,9.79-1.07,7.79-3.25,9.79-5.41,3-9.7,3-7.53-1-9.7-3S177.1,320.45,177.1,315.92Z" style="fill:#00a1dd"/>
                <path d="M133,315.92q0-6.79,3.26-9.79c2.17-2,5.4-3,9.7-3s7.53,1,9.7,3,3.25,5.27,3.25,9.79-1.07,7.79-3.25,9.79-5.41,3-9.7,3-7.53-1-9.7-3S133,320.45,133,315.92Z" style="fill:#00a1dd"/>
                <path d="M89.53,315.92q0-6.79,3.26-9.79c2.17-2,5.4-3,9.7-3s7.53,1,9.7,3,3.25,5.27,3.25,9.79-1.07,7.79-3.25,9.79-5.41,3-9.7,3-7.53-1-9.7-3S89.53,320.45,89.53,315.92Z" style="fill:#00a1dd"/>
                <path d="M369.37,337.78c0,6,3.92,8.64,8.71,6l40.81-22.94c4.78-2.69,4.78-7.08,0-9.78L378.08,288.1c-4.79-2.68-8.71,0-8.71,6Z" style="fill:#00a1dd"/>
            </g>
            <use id="egg" width="69.46" height="63.67" transform="translate(200.12 265) scale(1.64 1.63)" xlink:href="#Home"/> <!-- href="#Home" --><!-- rollback: hopefuly fixed after for Canary 88 -->
        </g>
        <g id="badge">
            <g id="bbkg">
                <rect x="320.63" y="231.83" width="173.37" height="182.84" rx="12" ry="12" style="fill:#007c53"/>
                <rect x="304" y="224" width="184" height="184" rx="18.96" ry="18.96" style="fill:#13e813"/>
            </g>
            <path id="chg" d="M463.13,331.89l12.66-78.26L448,266.29a72.74,72.74,0,0,0-54.11-24.56c-40.39,0-73.26,33.76-73.26,75.25s32.86,75.25,73.26,75.25c30.15,0,56.87-18.58,68.05-47.35l-24.92-9.69c-7.16,18.41-24.09,30.3-43.13,30.3-25.65,0-46.51-21.76-46.51-48.51s20.87-48.51,46.51-48.51a45.43,45.43,0,0,1,27.94,9.77l-26.15,11.94Z" style="fill:#006131"/>
            <polygon id="add" points="455.52 301.48 413.84 301.48 413.84 259.25 382.87 259.25 382.87 301.48 341.19 301.48 341.19 332.86 382.87 332.86 382.87 375.1 413.84 375.1 413.84 332.86 455.52 332.86 455.52 301.48" style="fill:#fff" stroke="#006837" stroke-miterlimit="10"/>
        </g>
        <g id="feedback">
            <path id="iNo" d="M263.87,282.54c-21.13-6.87-51.59-24.14-51.59-46.16,0-13,9.61-26.51,39.52-42.37,23.6-12.31,44.73-22.49,44.73-30.06,0-7.81-5.49-12.78-18.66-12.78-27.17,0-47.48,25.56-54.89,25.56-9.6,0-23.88-11.36-23.88-24.38,0-6.86,3.57-10.42,9.33-15.15C221.89,127,243.57,123,253.18,123H254c35.4,0,73.82,28.64,73.82,60.6,0,14.2-3.29,24.62-23.88,36.69-12.9,7.81-42,21.06-42,33.61,0,5.21,2.2,11.6,10.7,20.36Zm-6.7,53.79c-12.91,0-22.69-8.26-22.69-20.65,0-11.67,9.79-20.29,23.11-20.29,13.53,0,23.32,8.62,23.31,20.29,0,12.39-9.79,20.65-23.32,20.65Z" style="fill:#ed5f0c"/>
            <path id="iOk" d="M247.55,312.83l-91.6-81a15.23,15.23,0,0,1-1.54-21.24l18.37-21.75a15.23,15.23,0,0,1,21.79-1.53L242.35,230l82.4-92.83a15.23,15.23,0,0,1,19.06-3l23.62,13.77A15.23,15.23,0,0,1,371.24,171Z" style="fill:#006131"/>
        </g>
    </g>
</svg>
