<svg xmlns="http://www.w3.org/2000/svg" xmlns:xlink="http://www.w3.org/1999/xlink" viewBox="0 0 512 512">
    <!-- <style> #egg, #badge, #feedback { display: none; } </style> -->
    <!-- C:\X\desktop web\web pictures\web\dp\2015, 09.31.15, dp logo play\dp current\images 2017062917 new\renders -->
    <defs>
        <filter id="luminosity-invert-noclip" x="-19.8" y="6.17" width="462.04" height="551.22" filterUnits="userSpaceOnUse" color-interpolation-filters="sRGB">
            <feColorMatrix values="-1 0 0 0 1 0 -1 0 0 1 0 0 -1 0 1 0 0 0 1 0" result="invert"/>
            <feFlood flood-color="#fff" result="bg"/>
            <feBlend in="invert" in2="bg"/>
        </filter>
        <mask id="mask" x="-19.8" y="6.17" width="462.04" height="551.22" maskUnits="userSpaceOnUse">
            <rect x="-19.8" y="6.17" width="281.11" height="551.22" filter="url(#luminosity-invert-noclip)"/>
        </mask>
        <mask id="mask-2" x="-4.16" y="19.09" width="434.16" height="521.95" maskUnits="userSpaceOnUse">
            <rect x="-4.16" y="19.09" width="266.18" height="521.95" style="fill:#fff"/>
        </mask>
    </defs>
    <g id="dpmaxz-logo">
        <g id="bkg">
            <g>
                <path d="M8.83,199.93,189.08,54.26C224,33.76,285,30.21,332.57,61L503,172.05,424.4,362.82,264.33,499.36,95.18,382.68Z" style="fill:#0080c7"/>
                <path d="M8.83,177.62,189.08,32C224,11.46,285,7.91,332.57,38.64L503,149.75,421.19,348.07l-156.86,135L95.18,367.93Z" style="fill:#29abe2"/>
                <g mask="url(#mask)"> <!-- <g mask="#mask"> --><!-- rollback: hopefuly fixed after for Canary 88 -->
                    <path d="M72.06,196,206.19,87.64c26-15.25,71.39-17.89,106.77,5l126.81,82.67-61,149.93L262.18,423.3,136.22,340Z" style="fill:#5bcbf5" stroke="#fff" stroke-miterlimit="10" stroke-width="4"/>
                </g>
                <g mask="url(#mask-2)"><!-- <g mask="#mask-2"> --><!-- rollback: hopefuly fixed after for Canary 88 -->
                    <path d="M81.83,198.88l127-102.63c24.59-14.44,67.6-16.94,101.1,4.71L430,179.24l-57.73,142L261.85,414.07,142.58,335.2Z" style="fill:#82d3f6"/>
                </g>
            </g>
        </g>
        <g id="logo">
            <g id="egg">
                <path id="tmShirt" d="M370.71,216.51v53.76l-45.66,21.34-13.74,103.8H258.56V325.18H254v70.24H201.4l-13.74-103.8L142,270.28V216.51l72.64.85c5.06,15.24,26.35,26.58,41.71,26.58S293,232.6,298.07,217.36Z" style="fill:#e9d2bb" stroke="#000" stroke-miterlimit="10" opacity="0.97"/>
                <polygon points="334.42 215.33 334.42 292.84 326.51 291.25 327.97 331.1 184.74 331.1 186.2 291.25 178.28 292.84 178.28 215.33 187.68 215.33 256.12 243.6 325.03 215.33 334.42 215.33" style="fill:red"/>
            </g>
            <path id="head" d="M256.36,98c-44.15,0-80.07,37.56-80.07,83.93a86,86,0,0,0,.58,9.24,84.25,84.25,0,0,0,10.81,33.64c13.89,24.49,39.49,40.87,68.68,40.87S311.15,249.29,325,224.8a84.37,84.37,0,0,0,10.89-33.64,86,86,0,0,0,.5-9.24C336.42,135.56,300.59,98,256.36,98Zm41.82,96c-5.07,19.17-21.95,33.38-41.82,33.38-20,0-36.75-14.21-41.82-33.38-.25-1-.42-1.83-.58-2.79a48.31,48.31,0,0,1-.91-9.24c0-25.19,19.37-45.41,43.32-45.41s43.32,20.22,43.32,45.41a48.28,48.28,0,0,1-.83,9.24C298.59,192.12,298.43,193,298.18,194Z"/>
            <rect id="body" x="200.45" y="278.73" width="112.16" height="71.52" style="fill:red"/>
        </g>
        <g id="badge">
            <g id="bbkg">
                <rect x="332.63" y="15.83" width="173.37" height="182.84" rx="12" ry="12" style="fill:#007c53"/>
                <rect x="326" y="10.14" width="175.26" height="184.06" rx="12" ry="12" style="fill:#13e813"/>
            </g>
            <path id="chg" d="M479.13,120.89l12.66-78.26L464,55.29a72.74,72.74,0,0,0-54.11-24.56c-40.39,0-73.26,33.76-73.26,75.25s32.86,75.25,73.26,75.25c30.15,0,56.87-18.58,68.05-47.35l-24.92-9.69c-7.16,18.41-24.09,30.3-43.13,30.3-25.65,0-46.51-21.76-46.51-48.51s20.87-48.51,46.51-48.51a45.43,45.43,0,0,1,27.94,9.77L411.71,79.18Z" style="fill:#006131"/>
            <polygon id="add" points="471.52 86.48 429.84 86.48 429.84 44.25 398.87 44.25 398.87 86.48 357.19 86.48 357.19 117.86 398.87 117.86 398.87 160.1 429.84 160.1 429.84 117.86 471.52 117.86 471.52 86.48" style="fill:#fff" stroke="#006837" stroke-miterlimit="10"/>
        </g>
        <g id="feedback">
            <path id="iOk" d="M246.55,327.83l-91.6-81a15.23,15.23,0,0,1-1.54-21.24l18.37-21.75a15.23,15.23,0,0,1,21.79-1.53L241.35,245l82.4-92.83a15.23,15.23,0,0,1,19.06-3l23.62,13.77A15.23,15.23,0,0,1,370.24,186Z" style="fill:#006131"/>
            <path id="iNo" d="M262.87,297.54c-21.13-6.87-51.59-24.14-51.59-46.16,0-13,9.61-26.51,39.52-42.37,23.6-12.31,44.73-22.49,44.73-30.06,0-7.81-5.49-12.78-18.66-12.78-27.17,0-47.48,25.56-54.89,25.56-9.6,0-23.88-11.36-23.88-24.38,0-6.86,3.57-10.42,9.33-15.15C220.89,142,242.57,138,252.18,138H253c35.4,0,73.82,28.64,73.82,60.6,0,14.2-3.29,24.62-23.88,36.69-12.9,7.81-42,21.06-42,33.61,0,5.21,2.2,11.6,10.7,20.36Zm-6.7,53.79c-12.91,0-22.69-8.26-22.69-20.65,0-11.67,9.79-20.29,23.11-20.29,13.53,0,23.32,8.62,23.31,20.29,0,12.39-9.79,20.65-23.32,20.65Z" style="fill:#ed5f0c"/>
        </g>
    </g>
</svg>
